<svg viewBox="0 0 32.941 32.941">
  <path d="M32 27.043h-4.862c-5.981 0-9.108-5.719-11.868-10.764-2.391-4.371-4.648-8.499-8.242-8.499H.941a.94.94 0 1 1 0-1.883h6.086c4.71 0 7.345 4.818 9.894 9.479 2.631 4.811 5.352 9.784 10.217 9.784H32a.941.941 0 0 1 0 1.883zM19.537 12.362a.941.941 0 0 1-.756-1.501c2.503-3.386 5.158-4.963 8.356-4.963H32a.941.941 0 0 1 0 1.883h-4.862c-2.585 0-4.695 1.295-6.843 4.199a.941.941 0 0 1-.758.382zM7.027 27.043H.941a.942.942 0 0 1 0-1.882h6.086c2.04 0 3.803-1.283 5.715-4.16a.942.942 0 1 1 1.569 1.043c-1.548 2.326-3.775 4.999-7.284 4.999z" />
  <path d="M28.872 10.908a.94.94 0 0 1-.665-1.606l2.462-2.463-2.462-2.463a.94.94 0 0 1 0-1.33.937.937 0 0 1 1.33 0l3.128 3.128a.94.94 0 0 1 0 1.33l-3.128 3.128a.93.93 0 0 1-.665.276zM28.872 30.172a.94.94 0 0 1-.666-1.606l2.463-2.464-2.462-2.461a.941.941 0 0 1 1.33-1.332l3.128 3.127a.94.94 0 0 1 .001 1.331l-3.128 3.129a.939.939 0 0 1-.666.276z" fill="#010002"/>
</svg>
